<svg width="20" height="20" xmlns="http://www.w3.org/2000/svg">

 <g>
  <title>background</title>
  <rect fill="none" id="canvas_background" height="22" width="22" y="-1" x="-1"/>
 </g>
 <g>
  <title>Layer 1</title>
  <path transform="rotate(-180 9.999999046325684,10) " stroke-width="0" stroke="null" id="svg_2" fill="#fdc97d" d="m10.709023,6.03825c0,-1.30996 0.353843,-2.359654 1.062599,-3.149083c0.708756,-0.790092 1.591226,-1.185139 2.644203,-1.185139c1.345353,0 2.398865,0.530491 3.16214,1.591472c0.763275,1.060317 1.145447,2.471861 1.145447,4.232638c0,1.805262 -0.226631,3.340962 -0.681496,4.60511c-0.45433,1.263484 -0.998993,2.312514 -1.636124,3.149083c-0.634994,0.835241 -1.298851,1.489889 -1.989967,1.963944c-0.690048,0.474055 -1.289764,0.822626 -1.798614,1.049694l-1.745164,-3.656999c0.726929,-0.361849 1.345353,-0.937488 1.853668,-1.72758c0.509385,-0.790092 0.799622,-1.63662 0.872849,-2.538919c-0.726394,0 -1.390786,-0.396374 -1.990502,-1.185803c-0.599716,-0.790092 -0.89904,-1.839787 -0.89904,-3.148419zm-9.432435,0c0,-1.30996 0.354378,-2.359654 1.063133,-3.149083c0.708756,-0.790756 1.590691,-1.185139 2.644203,-1.185139c1.345887,0 2.398865,0.530491 3.16214,1.591472c0.76381,1.060317 1.145447,2.471861 1.145447,4.232638c0,1.805262 -0.226631,3.340962 -0.681496,4.60511c-0.45433,1.263484 -0.998993,2.312514 -1.63559,3.149083c-0.634994,0.835241 -1.299385,1.489889 -1.990502,1.963944c-0.690048,0.474055 -1.28923,0.822626 -1.798614,1.049694l-1.744629,-3.656999c0.726929,-0.361849 1.344818,-0.937488 1.853134,-1.72758c0.509385,-0.790092 0.800156,-1.63662 0.872849,-2.538919c-0.726394,0 -1.390786,-0.396374 -1.989967,-1.185803c-0.600251,-0.790092 -0.900109,-1.839787 -0.900109,-3.148419z"/>
 </g>
</svg>